# xmcd CD database file
# Copyright (C) 1996 Ti Kan
#
# Track frame offsets:
# 	150
# 	14785
# 	26970
# 	42930
# 	59122
# 	71330
# 	83205
# 	98632
# 	112680
# 	130972
# 	146625
# 	160740
#
# Disc length: 2324 seconds
#
# Revision: 1
# Processed by: cddbd v1.4b41PL1 Copyright (c) Steve Scherf et al.
# Submitted via: DiscPlay 3.4.1
#
DISCID=a509120c
DTITLE=Country Hearts - Off and Running
DYEAR=1900
DGENRE=
TTITLE0=Sisters After All
TTITLE1=Don't  Fix It
TTITLE2=Lonely Shade of Blue
TTITLE3=Forever ends at 8:00 am
TTITLE4=It's Still There
TTITLE5=Here in Love
TTITLE6=Baby You Baby
TTITLE7=Thunder and Lightning
TTITLE8=Honey Don't Go
TTITLE9=Blue Crystal Waters
TTITLE10=Deep in the Heart
TTITLE11=Off and Runnin'
EXTD=
EXTT0=
EXTT1=
EXTT2=
EXTT3=
EXTT4=
EXTT5=
EXTT6=
EXTT7=
EXTT8=
EXTT9=
EXTT10=
EXTT11=
PLAYORDER=
